<mxfile host="app.diagrams.net" agent="Mozilla/5.0 (Macintosh; Intel Mac OS X 10_15_7) AppleWebKit/537.36 (KHTML, like Gecko) Chrome/138.0.0.0 Safari/537.36" version="28.0.7">
  <diagram name="Page-1" id="rrq2DgjpaMgxxwC1FT-i">
    <mxGraphModel dx="1634" dy="1190" grid="0" gridSize="10" guides="1" tooltips="1" connect="1" arrows="1" fold="1" page="0" pageScale="1" pageWidth="850" pageHeight="1100" math="0" shadow="0">
      <root>
        <mxCell id="0" />
        <mxCell id="1" parent="0" />
        <mxCell id="DATJfEnJmrHQP5NNrF-W-78" value="" style="rounded=1;whiteSpace=wrap;html=1;strokeColor=#D79B00;strokeWidth=2;dashed=1;dashPattern=8 8;" vertex="1" parent="1">
          <mxGeometry x="1.9999999999999996" y="386.5" width="480" height="195" as="geometry" />
        </mxCell>
        <mxCell id="DATJfEnJmrHQP5NNrF-W-130" value="" style="rounded=1;whiteSpace=wrap;html=1;strokeColor=#D79B00;strokeWidth=2;dashed=1;" vertex="1" parent="1">
          <mxGeometry x="33" y="415.5" width="428" height="74" as="geometry" />
        </mxCell>
        <mxCell id="DATJfEnJmrHQP5NNrF-W-127" value="" style="rounded=1;whiteSpace=wrap;html=1;strokeColor=#82B366;strokeWidth=2;dashed=1;dashPattern=8 8;" vertex="1" parent="1">
          <mxGeometry x="822" y="899" width="632" height="533" as="geometry" />
        </mxCell>
        <mxCell id="DATJfEnJmrHQP5NNrF-W-129" value="" style="rounded=1;whiteSpace=wrap;html=1;strokeColor=#82B366;strokeWidth=2;dashed=1;" vertex="1" parent="1">
          <mxGeometry x="936" y="1046" width="395.5" height="88" as="geometry" />
        </mxCell>
        <mxCell id="DATJfEnJmrHQP5NNrF-W-128" value="" style="rounded=1;whiteSpace=wrap;html=1;strokeColor=#AE4132;strokeWidth=2;dashed=1;dashPattern=8 8;" vertex="1" parent="1">
          <mxGeometry x="-30.5" y="637.56" width="545" height="104" as="geometry" />
        </mxCell>
        <mxCell id="DATJfEnJmrHQP5NNrF-W-126" value="" style="rounded=1;whiteSpace=wrap;html=1;strokeColor=#82B366;strokeWidth=2;dashed=1;" vertex="1" parent="1">
          <mxGeometry x="923.25" y="1199" width="395.5" height="170" as="geometry" />
        </mxCell>
        <mxCell id="DATJfEnJmrHQP5NNrF-W-125" value="" style="rounded=1;whiteSpace=wrap;html=1;strokeColor=#82B366;strokeWidth=2;dashed=1;" vertex="1" parent="1">
          <mxGeometry x="929.5" y="944" width="395.5" height="88" as="geometry" />
        </mxCell>
        <mxCell id="DATJfEnJmrHQP5NNrF-W-124" value="" style="rounded=1;whiteSpace=wrap;html=1;strokeColor=#0E8088;strokeWidth=2;dashed=1;dashPattern=8 8;" vertex="1" parent="1">
          <mxGeometry x="801" y="-4" width="719" height="839" as="geometry" />
        </mxCell>
        <mxCell id="DATJfEnJmrHQP5NNrF-W-123" value="" style="rounded=1;whiteSpace=wrap;html=1;strokeColor=#0E8088;strokeWidth=2;dashed=1;" vertex="1" parent="1">
          <mxGeometry x="858" y="536.5" width="581" height="269" as="geometry" />
        </mxCell>
        <mxCell id="DATJfEnJmrHQP5NNrF-W-122" value="" style="rounded=1;whiteSpace=wrap;html=1;strokeColor=#0E8088;strokeWidth=2;dashed=1;" vertex="1" parent="1">
          <mxGeometry x="846.5" y="204.75" width="581" height="269" as="geometry" />
        </mxCell>
        <mxCell id="DATJfEnJmrHQP5NNrF-W-121" value="" style="rounded=1;whiteSpace=wrap;html=1;strokeColor=#0E8088;strokeWidth=2;dashed=1;" vertex="1" parent="1">
          <mxGeometry x="1019" y="60" width="193" height="107" as="geometry" />
        </mxCell>
        <mxCell id="DATJfEnJmrHQP5NNrF-W-120" value="" style="rounded=1;whiteSpace=wrap;html=1;fillColor=#d5e8d4;strokeColor=#82b366;" vertex="1" parent="1">
          <mxGeometry x="1210" y="1235.22" width="67" height="38.44" as="geometry" />
        </mxCell>
        <mxCell id="DATJfEnJmrHQP5NNrF-W-119" value="" style="rounded=1;whiteSpace=wrap;html=1;fillColor=#d5e8d4;strokeColor=#82b366;" vertex="1" parent="1">
          <mxGeometry x="1077" y="1235.22" width="80" height="38.44" as="geometry" />
        </mxCell>
        <mxCell id="DATJfEnJmrHQP5NNrF-W-118" value="" style="rounded=1;whiteSpace=wrap;html=1;fillColor=#d5e8d4;strokeColor=#82b366;" vertex="1" parent="1">
          <mxGeometry x="1042" y="1305.22" width="171" height="38.44" as="geometry" />
        </mxCell>
        <mxCell id="DATJfEnJmrHQP5NNrF-W-117" value="" style="rounded=1;whiteSpace=wrap;html=1;fillColor=#d5e8d4;strokeColor=#82b366;" vertex="1" parent="1">
          <mxGeometry x="967" y="1235.22" width="99" height="38.44" as="geometry" />
        </mxCell>
        <mxCell id="DATJfEnJmrHQP5NNrF-W-116" value="" style="rounded=1;whiteSpace=wrap;html=1;fillColor=#d5e8d4;strokeColor=#82b366;" vertex="1" parent="1">
          <mxGeometry x="1198" y="1053.28" width="99" height="38.44" as="geometry" />
        </mxCell>
        <mxCell id="DATJfEnJmrHQP5NNrF-W-115" value="" style="rounded=1;whiteSpace=wrap;html=1;fillColor=#d5e8d4;strokeColor=#82b366;" vertex="1" parent="1">
          <mxGeometry x="1076" y="1052" width="99" height="38.44" as="geometry" />
        </mxCell>
        <mxCell id="DATJfEnJmrHQP5NNrF-W-113" value="" style="rounded=1;whiteSpace=wrap;html=1;fillColor=#d5e8d4;strokeColor=#82b366;" vertex="1" parent="1">
          <mxGeometry x="984" y="1053.28" width="69" height="34.94" as="geometry" />
        </mxCell>
        <mxCell id="DATJfEnJmrHQP5NNrF-W-111" value="" style="rounded=1;whiteSpace=wrap;html=1;fillColor=#d5e8d4;strokeColor=#82b366;" vertex="1" parent="1">
          <mxGeometry x="1076" y="976" width="99" height="38.44" as="geometry" />
        </mxCell>
        <mxCell id="DATJfEnJmrHQP5NNrF-W-110" value="" style="rounded=1;whiteSpace=wrap;html=1;fillColor=#b0e3e6;strokeColor=#0e8088;" vertex="1" parent="1">
          <mxGeometry x="1207" y="734.62" width="134" height="49.88" as="geometry" />
        </mxCell>
        <mxCell id="DATJfEnJmrHQP5NNrF-W-109" value="" style="rounded=1;whiteSpace=wrap;html=1;fillColor=#b0e3e6;strokeColor=#0e8088;" vertex="1" parent="1">
          <mxGeometry x="963" y="736.12" width="134" height="40.88" as="geometry" />
        </mxCell>
        <mxCell id="DATJfEnJmrHQP5NNrF-W-108" value="" style="rounded=1;whiteSpace=wrap;html=1;fillColor=#b0e3e6;strokeColor=#0e8088;" vertex="1" parent="1">
          <mxGeometry x="1284" y="651.25" width="81" height="43.75" as="geometry" />
        </mxCell>
        <mxCell id="DATJfEnJmrHQP5NNrF-W-107" value="" style="rounded=1;whiteSpace=wrap;html=1;fillColor=#b0e3e6;strokeColor=#0e8088;" vertex="1" parent="1">
          <mxGeometry x="1144" y="650" width="72" height="41" as="geometry" />
        </mxCell>
        <mxCell id="DATJfEnJmrHQP5NNrF-W-106" value="" style="rounded=1;whiteSpace=wrap;html=1;fillColor=#b0e3e6;strokeColor=#0e8088;" vertex="1" parent="1">
          <mxGeometry x="981" y="650" width="72" height="41" as="geometry" />
        </mxCell>
        <mxCell id="DATJfEnJmrHQP5NNrF-W-105" value="" style="rounded=1;whiteSpace=wrap;html=1;fillColor=#b0e3e6;strokeColor=#0e8088;" vertex="1" parent="1">
          <mxGeometry x="1111" y="571" width="142" height="51" as="geometry" />
        </mxCell>
        <mxCell id="DATJfEnJmrHQP5NNrF-W-104" value="" style="rounded=1;whiteSpace=wrap;html=1;fillColor=#b0e3e6;strokeColor=#0e8088;" vertex="1" parent="1">
          <mxGeometry x="1156" y="394.5" width="142" height="51" as="geometry" />
        </mxCell>
        <mxCell id="DATJfEnJmrHQP5NNrF-W-103" value="" style="rounded=1;whiteSpace=wrap;html=1;fillColor=#b0e3e6;strokeColor=#0e8088;" vertex="1" parent="1">
          <mxGeometry x="957" y="392" width="142" height="51" as="geometry" />
        </mxCell>
        <mxCell id="DATJfEnJmrHQP5NNrF-W-101" value="" style="rounded=1;whiteSpace=wrap;html=1;fillColor=#b0e3e6;strokeColor=#0e8088;" vertex="1" parent="1">
          <mxGeometry x="1197" y="319" width="160" height="48" as="geometry" />
        </mxCell>
        <mxCell id="DATJfEnJmrHQP5NNrF-W-100" value="" style="rounded=1;whiteSpace=wrap;html=1;fillColor=#b0e3e6;strokeColor=#0e8088;" vertex="1" parent="1">
          <mxGeometry x="1112" y="318" width="59" height="48" as="geometry" />
        </mxCell>
        <mxCell id="DATJfEnJmrHQP5NNrF-W-99" value="" style="rounded=1;whiteSpace=wrap;html=1;fillColor=#b0e3e6;strokeColor=#0e8088;" vertex="1" parent="1">
          <mxGeometry x="982" y="318" width="77" height="48" as="geometry" />
        </mxCell>
        <mxCell id="DATJfEnJmrHQP5NNrF-W-98" value="" style="rounded=1;whiteSpace=wrap;html=1;fillColor=#b0e3e6;strokeColor=#0e8088;" vertex="1" parent="1">
          <mxGeometry x="1062" y="243" width="77" height="48" as="geometry" />
        </mxCell>
        <mxCell id="DATJfEnJmrHQP5NNrF-W-97" value="" style="rounded=1;whiteSpace=wrap;html=1;fillColor=#b0e3e6;strokeColor=#0e8088;" vertex="1" parent="1">
          <mxGeometry x="1061" y="90" width="120" height="60" as="geometry" />
        </mxCell>
        <mxCell id="DATJfEnJmrHQP5NNrF-W-95" value="" style="rounded=1;whiteSpace=wrap;html=1;strokeColor=#56517E;dashed=1;dashPattern=8 8;strokeWidth=2;" vertex="1" parent="1">
          <mxGeometry x="-93" y="859" width="686" height="245" as="geometry" />
        </mxCell>
        <mxCell id="DATJfEnJmrHQP5NNrF-W-94" value="" style="rounded=1;whiteSpace=wrap;html=1;fillColor=#d0cee2;strokeColor=#56517e;strokeWidth=2;" vertex="1" parent="1">
          <mxGeometry x="480.44000000000005" y="1012.94" width="86" height="47" as="geometry" />
        </mxCell>
        <mxCell id="DATJfEnJmrHQP5NNrF-W-93" value="" style="rounded=1;whiteSpace=wrap;html=1;fillColor=#d0cee2;strokeColor=#56517e;strokeWidth=2;" vertex="1" parent="1">
          <mxGeometry x="344.70000000000005" y="1012.94" width="74.32" height="47" as="geometry" />
        </mxCell>
        <mxCell id="DATJfEnJmrHQP5NNrF-W-92" value="" style="rounded=1;whiteSpace=wrap;html=1;fillColor=#d0cee2;strokeColor=#56517e;strokeWidth=2;" vertex="1" parent="1">
          <mxGeometry x="484.28" y="913.94" width="78.32" height="50.5" as="geometry" />
        </mxCell>
        <mxCell id="DATJfEnJmrHQP5NNrF-W-91" value="" style="rounded=1;whiteSpace=wrap;html=1;fillColor=#d0cee2;strokeColor=#56517e;strokeWidth=2;" vertex="1" parent="1">
          <mxGeometry x="339.43999999999994" y="913.94" width="83.16" height="48.5" as="geometry" />
        </mxCell>
        <mxCell id="DATJfEnJmrHQP5NNrF-W-88" value="" style="rounded=1;whiteSpace=wrap;html=1;strokeColor=#56517E;dashed=1;strokeWidth=2;" vertex="1" parent="1">
          <mxGeometry x="-72.85" y="883.5" width="363" height="196" as="geometry" />
        </mxCell>
        <mxCell id="DATJfEnJmrHQP5NNrF-W-90" value="" style="rounded=1;whiteSpace=wrap;html=1;fillColor=#d0cee2;strokeColor=#56517e;strokeWidth=2;" vertex="1" parent="1">
          <mxGeometry x="125" y="1011.5" width="147" height="46" as="geometry" />
        </mxCell>
        <mxCell id="DATJfEnJmrHQP5NNrF-W-89" value="" style="rounded=1;whiteSpace=wrap;html=1;fillColor=#d0cee2;strokeColor=#56517e;strokeWidth=2;" vertex="1" parent="1">
          <mxGeometry x="-53" y="1011" width="139.32" height="47" as="geometry" />
        </mxCell>
        <mxCell id="DATJfEnJmrHQP5NNrF-W-87" value="" style="rounded=1;whiteSpace=wrap;html=1;fillColor=#d0cee2;strokeColor=#56517e;strokeWidth=2;" vertex="1" parent="1">
          <mxGeometry x="216" y="924.5" width="63" height="47" as="geometry" />
        </mxCell>
        <mxCell id="DATJfEnJmrHQP5NNrF-W-86" value="" style="rounded=1;whiteSpace=wrap;html=1;fillColor=#d0cee2;strokeColor=#56517e;strokeWidth=2;" vertex="1" parent="1">
          <mxGeometry x="122" y="924.5" width="63" height="47" as="geometry" />
        </mxCell>
        <mxCell id="DATJfEnJmrHQP5NNrF-W-85" value="" style="rounded=1;whiteSpace=wrap;html=1;fillColor=#d0cee2;strokeColor=#56517e;strokeWidth=2;" vertex="1" parent="1">
          <mxGeometry x="28.29" y="927" width="63" height="42" as="geometry" />
        </mxCell>
        <mxCell id="DATJfEnJmrHQP5NNrF-W-83" value="" style="rounded=1;whiteSpace=wrap;html=1;fillColor=#d0cee2;strokeColor=#56517e;strokeWidth=2;" vertex="1" parent="1">
          <mxGeometry x="-59" y="924.5" width="63" height="47" as="geometry" />
        </mxCell>
        <mxCell id="DATJfEnJmrHQP5NNrF-W-81" value="" style="rounded=1;whiteSpace=wrap;html=1;strokeColor=#ae4132;strokeWidth=2;fillColor=#fad9d5;" vertex="1" parent="1">
          <mxGeometry x="329.34" y="662.1199999999999" width="160" height="53" as="geometry" />
        </mxCell>
        <mxCell id="DATJfEnJmrHQP5NNrF-W-80" value="" style="rounded=1;whiteSpace=wrap;html=1;strokeColor=#ae4132;strokeWidth=2;fillColor=#fad9d5;" vertex="1" parent="1">
          <mxGeometry x="154.5" y="661.56" width="138.65" height="53" as="geometry" />
        </mxCell>
        <mxCell id="DATJfEnJmrHQP5NNrF-W-79" value="" style="rounded=1;whiteSpace=wrap;html=1;strokeColor=#ae4132;strokeWidth=2;fillColor=#fad9d5;" vertex="1" parent="1">
          <mxGeometry x="-12.02" y="662.56" width="129.68" height="51" as="geometry" />
        </mxCell>
        <mxCell id="DATJfEnJmrHQP5NNrF-W-77" value="" style="rounded=1;whiteSpace=wrap;html=1;fillColor=#ffe6cc;strokeColor=#d79b00;strokeWidth=2;" vertex="1" parent="1">
          <mxGeometry x="399" y="514.5" width="65" height="44" as="geometry" />
        </mxCell>
        <mxCell id="DATJfEnJmrHQP5NNrF-W-73" value="" style="rounded=1;whiteSpace=wrap;html=1;fillColor=#ffe6cc;strokeColor=#d79b00;strokeWidth=2;" vertex="1" parent="1">
          <mxGeometry x="284.07" y="516" width="65" height="44" as="geometry" />
        </mxCell>
        <mxCell id="DATJfEnJmrHQP5NNrF-W-72" value="" style="rounded=1;whiteSpace=wrap;html=1;fillColor=#ffe6cc;strokeColor=#d79b00;strokeWidth=2;" vertex="1" parent="1">
          <mxGeometry x="156.28" y="514.5" width="91.56" height="47" as="geometry" />
        </mxCell>
        <mxCell id="DATJfEnJmrHQP5NNrF-W-71" value="" style="rounded=1;whiteSpace=wrap;html=1;fillColor=#ffe6cc;strokeColor=#d79b00;strokeWidth=2;" vertex="1" parent="1">
          <mxGeometry x="18.759999999999994" y="514.5" width="91.56" height="47" as="geometry" />
        </mxCell>
        <mxCell id="DATJfEnJmrHQP5NNrF-W-70" value="" style="rounded=1;whiteSpace=wrap;html=1;fillColor=#ffe6cc;strokeColor=#d79b00;strokeWidth=2;" vertex="1" parent="1">
          <mxGeometry x="363.37999999999994" y="429.5" width="79.37" height="47" as="geometry" />
        </mxCell>
        <mxCell id="DATJfEnJmrHQP5NNrF-W-69" value="" style="rounded=1;whiteSpace=wrap;html=1;fillColor=#ffe6cc;strokeColor=#d79b00;strokeWidth=2;" vertex="1" parent="1">
          <mxGeometry x="253.12999999999994" y="429.5" width="79.37" height="47" as="geometry" />
        </mxCell>
        <mxCell id="DATJfEnJmrHQP5NNrF-W-68" value="" style="rounded=1;whiteSpace=wrap;html=1;fillColor=#ffe6cc;strokeColor=#d79b00;strokeWidth=2;" vertex="1" parent="1">
          <mxGeometry x="147.22" y="429.5" width="79.37" height="47" as="geometry" />
        </mxCell>
        <mxCell id="DATJfEnJmrHQP5NNrF-W-67" value="" style="rounded=1;whiteSpace=wrap;html=1;fillColor=#ffe6cc;strokeColor=#d79b00;strokeWidth=2;" vertex="1" parent="1">
          <mxGeometry x="46.13" y="429.5" width="79.37" height="47" as="geometry" />
        </mxCell>
        <mxCell id="DATJfEnJmrHQP5NNrF-W-23" value="" style="rounded=1;whiteSpace=wrap;html=1;dashed=1;dashPattern=8 8;strokeWidth=2;strokeColor=#9673A6;" vertex="1" parent="1">
          <mxGeometry x="-34" y="246" width="576" height="73" as="geometry" />
        </mxCell>
        <mxCell id="DATJfEnJmrHQP5NNrF-W-20" value="" style="rounded=1;whiteSpace=wrap;html=1;strokeWidth=2;fillColor=#e1d5e7;strokeColor=#9673a6;" vertex="1" parent="1">
          <mxGeometry x="371.62" y="262.5" width="150" height="40" as="geometry" />
        </mxCell>
        <mxCell id="DATJfEnJmrHQP5NNrF-W-19" value="" style="rounded=1;whiteSpace=wrap;html=1;strokeWidth=2;fillColor=#e1d5e7;strokeColor=#9673a6;" vertex="1" parent="1">
          <mxGeometry x="242.84" y="262.5" width="93" height="40" as="geometry" />
        </mxCell>
        <mxCell id="DATJfEnJmrHQP5NNrF-W-18" value="" style="rounded=1;whiteSpace=wrap;html=1;strokeWidth=2;fillColor=#e1d5e7;strokeColor=#9673a6;" vertex="1" parent="1">
          <mxGeometry x="113" y="262.5" width="93" height="40" as="geometry" />
        </mxCell>
        <mxCell id="DATJfEnJmrHQP5NNrF-W-17" value="" style="rounded=1;whiteSpace=wrap;html=1;strokeWidth=2;fillColor=#e1d5e7;strokeColor=#9673a6;" vertex="1" parent="1">
          <mxGeometry x="-16" y="262.5" width="93" height="40" as="geometry" />
        </mxCell>
        <mxCell id="DATJfEnJmrHQP5NNrF-W-12" value="" style="rounded=1;whiteSpace=wrap;html=1;dashed=1;dashPattern=8 8;strokeWidth=2;strokeColor=#B85450;" vertex="1" parent="1">
          <mxGeometry x="-63" y="99" width="662" height="80" as="geometry" />
        </mxCell>
        <mxCell id="DATJfEnJmrHQP5NNrF-W-11" value="" style="rounded=1;whiteSpace=wrap;html=1;strokeWidth=2;fillColor=#f8cecc;strokeColor=#b85450;" vertex="1" parent="1">
          <mxGeometry x="486" y="120" width="98" height="40" as="geometry" />
        </mxCell>
        <mxCell id="DATJfEnJmrHQP5NNrF-W-10" value="" style="rounded=1;whiteSpace=wrap;html=1;strokeWidth=2;fillColor=#f8cecc;strokeColor=#b85450;" vertex="1" parent="1">
          <mxGeometry x="351" y="120" width="98" height="40" as="geometry" />
        </mxCell>
        <mxCell id="DATJfEnJmrHQP5NNrF-W-9" value="" style="rounded=1;whiteSpace=wrap;html=1;strokeWidth=2;fillColor=#f8cecc;strokeColor=#b85450;" vertex="1" parent="1">
          <mxGeometry x="226" y="120" width="98" height="40" as="geometry" />
        </mxCell>
        <mxCell id="DATJfEnJmrHQP5NNrF-W-7" value="" style="rounded=1;whiteSpace=wrap;html=1;strokeWidth=2;fillColor=#f8cecc;strokeColor=#b85450;" vertex="1" parent="1">
          <mxGeometry x="90" y="120" width="98" height="40" as="geometry" />
        </mxCell>
        <mxCell id="DATJfEnJmrHQP5NNrF-W-6" value="" style="rounded=1;whiteSpace=wrap;html=1;strokeWidth=2;fillColor=#f8cecc;strokeColor=#b85450;" vertex="1" parent="1">
          <mxGeometry x="-46" y="120" width="98" height="40" as="geometry" />
        </mxCell>
        <mxCell id="DATJfEnJmrHQP5NNrF-W-1" value="&lt;font style=&quot;font-size: 16px;&quot;&gt;Markdown&lt;/font&gt;" style="text;html=1;align=center;verticalAlign=middle;whiteSpace=wrap;rounded=0;" vertex="1" parent="1">
          <mxGeometry x="-31" y="125" width="68" height="30" as="geometry" />
        </mxCell>
        <mxCell id="DATJfEnJmrHQP5NNrF-W-2" value="&lt;span style=&quot;font-size: 16px;&quot;&gt;PDF&lt;/span&gt;" style="text;html=1;align=center;verticalAlign=middle;whiteSpace=wrap;rounded=0;" vertex="1" parent="1">
          <mxGeometry x="105.75" y="126.5" width="66.5" height="27" as="geometry" />
        </mxCell>
        <mxCell id="DATJfEnJmrHQP5NNrF-W-3" value="&lt;span style=&quot;font-size: 16px;&quot;&gt;Excel&lt;/span&gt;" style="text;html=1;align=center;verticalAlign=middle;whiteSpace=wrap;rounded=0;" vertex="1" parent="1">
          <mxGeometry x="242.25" y="124.5" width="65.5" height="29" as="geometry" />
        </mxCell>
        <mxCell id="DATJfEnJmrHQP5NNrF-W-4" value="&lt;span style=&quot;font-size: 16px;&quot;&gt;Txt&lt;/span&gt;" style="text;html=1;align=center;verticalAlign=middle;whiteSpace=wrap;rounded=0;" vertex="1" parent="1">
          <mxGeometry x="372.25" y="126.5" width="55.5" height="27" as="geometry" />
        </mxCell>
        <mxCell id="DATJfEnJmrHQP5NNrF-W-5" value="&lt;span style=&quot;font-size: 16px;&quot;&gt;...&lt;/span&gt;" style="text;html=1;align=center;verticalAlign=middle;whiteSpace=wrap;rounded=0;" vertex="1" parent="1">
          <mxGeometry x="508.25" y="124.5" width="53.5" height="28" as="geometry" />
        </mxCell>
        <mxCell id="DATJfEnJmrHQP5NNrF-W-13" value="&lt;span style=&quot;font-size: 16px;&quot;&gt;格式转换&lt;/span&gt;" style="text;html=1;align=center;verticalAlign=middle;whiteSpace=wrap;rounded=0;" vertex="1" parent="1">
          <mxGeometry x="-2.75" y="267.5" width="67.75" height="30" as="geometry" />
        </mxCell>
        <mxCell id="DATJfEnJmrHQP5NNrF-W-14" value="&lt;span style=&quot;font-size: 16px;&quot;&gt;文本分割&lt;/span&gt;" style="text;html=1;align=center;verticalAlign=middle;whiteSpace=wrap;rounded=0;" vertex="1" parent="1">
          <mxGeometry x="125.5" y="267.5" width="68" height="30" as="geometry" />
        </mxCell>
        <mxCell id="DATJfEnJmrHQP5NNrF-W-15" value="&lt;span style=&quot;font-size: 16px;&quot;&gt;大纲提取&lt;/span&gt;" style="text;html=1;align=center;verticalAlign=middle;whiteSpace=wrap;rounded=0;" vertex="1" parent="1">
          <mxGeometry x="255.34" y="267.5" width="68" height="30" as="geometry" />
        </mxCell>
        <mxCell id="DATJfEnJmrHQP5NNrF-W-16" value="&lt;span style=&quot;font-size: 16px;&quot;&gt;大语言模型领域树&lt;/span&gt;" style="text;html=1;align=center;verticalAlign=middle;whiteSpace=wrap;rounded=0;" vertex="1" parent="1">
          <mxGeometry x="379.62" y="267.5" width="134" height="30" as="geometry" />
        </mxCell>
        <mxCell id="DATJfEnJmrHQP5NNrF-W-24" value="&lt;span style=&quot;font-size: 16px;&quot;&gt;问题1&lt;/span&gt;" style="text;html=1;align=center;verticalAlign=middle;whiteSpace=wrap;rounded=0;" vertex="1" parent="1">
          <mxGeometry x="51.94" y="438" width="67.75" height="30" as="geometry" />
        </mxCell>
        <mxCell id="DATJfEnJmrHQP5NNrF-W-25" value="&lt;span style=&quot;font-size: 16px;&quot;&gt;问题2&lt;/span&gt;" style="text;html=1;align=center;verticalAlign=middle;whiteSpace=wrap;rounded=0;" vertex="1" parent="1">
          <mxGeometry x="153.03" y="438" width="67.75" height="30" as="geometry" />
        </mxCell>
        <mxCell id="DATJfEnJmrHQP5NNrF-W-26" value="&lt;span style=&quot;font-size: 16px;&quot;&gt;问题3&lt;/span&gt;" style="text;html=1;align=center;verticalAlign=middle;whiteSpace=wrap;rounded=0;" vertex="1" parent="1">
          <mxGeometry x="258.94" y="438.5" width="67.75" height="30" as="geometry" />
        </mxCell>
        <mxCell id="DATJfEnJmrHQP5NNrF-W-27" value="&lt;span style=&quot;font-size: 16px;&quot;&gt;问题...&lt;/span&gt;" style="text;html=1;align=center;verticalAlign=middle;whiteSpace=wrap;rounded=0;" vertex="1" parent="1">
          <mxGeometry x="369.19" y="438.5" width="67.75" height="30" as="geometry" />
        </mxCell>
        <mxCell id="DATJfEnJmrHQP5NNrF-W-28" value="&lt;span style=&quot;font-size: 16px;&quot;&gt;列表视图&lt;/span&gt;" style="text;html=1;align=center;verticalAlign=middle;whiteSpace=wrap;rounded=0;" vertex="1" parent="1">
          <mxGeometry x="31.290000000000003" y="524.5" width="67.75" height="30" as="geometry" />
        </mxCell>
        <mxCell id="DATJfEnJmrHQP5NNrF-W-29" value="&lt;span style=&quot;font-size: 16px;&quot;&gt;领域视图&lt;/span&gt;" style="text;html=1;align=center;verticalAlign=middle;whiteSpace=wrap;rounded=0;" vertex="1" parent="1">
          <mxGeometry x="168.19" y="523" width="67.75" height="30" as="geometry" />
        </mxCell>
        <mxCell id="DATJfEnJmrHQP5NNrF-W-30" value="&lt;span style=&quot;font-size: 16px;&quot;&gt;编辑&lt;/span&gt;" style="text;html=1;align=center;verticalAlign=middle;whiteSpace=wrap;rounded=0;" vertex="1" parent="1">
          <mxGeometry x="288.90000000000003" y="523" width="53.54" height="30" as="geometry" />
        </mxCell>
        <mxCell id="DATJfEnJmrHQP5NNrF-W-31" value="&lt;span style=&quot;font-size: 16px;&quot;&gt;删除&lt;/span&gt;" style="text;html=1;align=center;verticalAlign=middle;whiteSpace=wrap;rounded=0;" vertex="1" parent="1">
          <mxGeometry x="406" y="521.5" width="51" height="30" as="geometry" />
        </mxCell>
        <mxCell id="DATJfEnJmrHQP5NNrF-W-32" value="&lt;span style=&quot;font-size: 16px;&quot;&gt;大语言模型回答&lt;/span&gt;" style="text;html=1;align=center;verticalAlign=middle;whiteSpace=wrap;rounded=0;" vertex="1" parent="1">
          <mxGeometry x="-6.37" y="672.56" width="117.87" height="30" as="geometry" />
        </mxCell>
        <mxCell id="DATJfEnJmrHQP5NNrF-W-33" value="&lt;span style=&quot;font-size: 16px;&quot;&gt;大语言模型思维链&lt;/span&gt;" style="text;html=1;align=center;verticalAlign=middle;whiteSpace=wrap;rounded=0;" vertex="1" parent="1">
          <mxGeometry x="159.96" y="673.56" width="129.88" height="30" as="geometry" />
        </mxCell>
        <mxCell id="DATJfEnJmrHQP5NNrF-W-34" value="&lt;span style=&quot;font-size: 16px;&quot;&gt;大语言模型领域标签&lt;/span&gt;" style="text;html=1;align=center;verticalAlign=middle;whiteSpace=wrap;rounded=0;" vertex="1" parent="1">
          <mxGeometry x="334.34" y="675.1199999999999" width="148" height="30" as="geometry" />
        </mxCell>
        <mxCell id="DATJfEnJmrHQP5NNrF-W-35" value="&lt;span style=&quot;font-size: 16px;&quot;&gt;数据集&lt;/span&gt;" style="text;html=1;align=center;verticalAlign=middle;whiteSpace=wrap;rounded=0;" vertex="1" parent="1">
          <mxGeometry x="45.97" y="883.94" width="125.37" height="30" as="geometry" />
        </mxCell>
        <mxCell id="DATJfEnJmrHQP5NNrF-W-36" value="&lt;span style=&quot;font-size: 16px;&quot;&gt;问题&lt;/span&gt;" style="text;html=1;align=center;verticalAlign=middle;whiteSpace=wrap;rounded=0;" vertex="1" parent="1">
          <mxGeometry x="-52.839999999999996" y="934.5" width="50.69" height="30" as="geometry" />
        </mxCell>
        <mxCell id="DATJfEnJmrHQP5NNrF-W-37" value="&lt;span style=&quot;font-size: 16px;&quot;&gt;回答&lt;/span&gt;" style="text;html=1;align=center;verticalAlign=middle;whiteSpace=wrap;rounded=0;" vertex="1" parent="1">
          <mxGeometry x="29.6" y="933" width="60.37" height="30" as="geometry" />
        </mxCell>
        <mxCell id="DATJfEnJmrHQP5NNrF-W-38" value="&lt;span style=&quot;font-size: 16px;&quot;&gt;思维链&lt;/span&gt;" style="text;html=1;align=center;verticalAlign=middle;whiteSpace=wrap;rounded=0;" vertex="1" parent="1">
          <mxGeometry x="127.5" y="934.75" width="52" height="26.5" as="geometry" />
        </mxCell>
        <mxCell id="DATJfEnJmrHQP5NNrF-W-39" value="&lt;span style=&quot;font-size: 16px;&quot;&gt;模型&lt;/span&gt;" style="text;html=1;align=center;verticalAlign=middle;whiteSpace=wrap;rounded=0;" vertex="1" parent="1">
          <mxGeometry x="220" y="935.75" width="52.69" height="27.5" as="geometry" />
        </mxCell>
        <mxCell id="DATJfEnJmrHQP5NNrF-W-40" value="&lt;span style=&quot;font-size: 16px;&quot;&gt;领域标签&lt;/span&gt;" style="text;html=1;align=center;verticalAlign=middle;whiteSpace=wrap;rounded=0;" vertex="1" parent="1">
          <mxGeometry x="-18.84" y="1022.5" width="71" height="24" as="geometry" />
        </mxCell>
        <mxCell id="DATJfEnJmrHQP5NNrF-W-41" value="&lt;span style=&quot;font-size: 16px;&quot;&gt;质量评估&lt;/span&gt;" style="text;html=1;align=center;verticalAlign=middle;whiteSpace=wrap;rounded=0;" vertex="1" parent="1">
          <mxGeometry x="165" y="1019.75" width="67" height="29.5" as="geometry" />
        </mxCell>
        <mxCell id="DATJfEnJmrHQP5NNrF-W-42" value="&lt;span style=&quot;font-size: 16px;&quot;&gt;质量分析&lt;/span&gt;" style="text;html=1;align=center;verticalAlign=middle;whiteSpace=wrap;rounded=0;" vertex="1" parent="1">
          <mxGeometry x="343.02" y="923.19" width="76" height="30" as="geometry" />
        </mxCell>
        <mxCell id="DATJfEnJmrHQP5NNrF-W-43" value="&lt;span style=&quot;font-size: 16px;&quot;&gt;人工评分&lt;/span&gt;" style="text;html=1;align=center;verticalAlign=middle;whiteSpace=wrap;rounded=0;" vertex="1" parent="1">
          <mxGeometry x="484.28" y="924.19" width="76" height="30" as="geometry" />
        </mxCell>
        <mxCell id="DATJfEnJmrHQP5NNrF-W-44" value="&lt;span style=&quot;font-size: 16px;&quot;&gt;结果优化&lt;/span&gt;" style="text;html=1;align=center;verticalAlign=middle;whiteSpace=wrap;rounded=0;" vertex="1" parent="1">
          <mxGeometry x="343.0200000000001" y="1021.44" width="76" height="30" as="geometry" />
        </mxCell>
        <mxCell id="DATJfEnJmrHQP5NNrF-W-45" value="&lt;span style=&quot;font-size: 16px;&quot;&gt;数据集导出&lt;/span&gt;" style="text;html=1;align=center;verticalAlign=middle;whiteSpace=wrap;rounded=0;" vertex="1" parent="1">
          <mxGeometry x="480.44000000000005" y="1021.44" width="87.66" height="30" as="geometry" />
        </mxCell>
        <mxCell id="DATJfEnJmrHQP5NNrF-W-46" value="&lt;span style=&quot;font-size: 16px;&quot;&gt;项目基本信息&lt;/span&gt;" style="text;html=1;align=center;verticalAlign=middle;whiteSpace=wrap;rounded=0;" vertex="1" parent="1">
          <mxGeometry x="1064" y="105" width="113" height="30" as="geometry" />
        </mxCell>
        <mxCell id="DATJfEnJmrHQP5NNrF-W-47" value="&lt;span style=&quot;font-size: 16px;&quot;&gt;任务配置&lt;/span&gt;" style="text;html=1;align=center;verticalAlign=middle;whiteSpace=wrap;rounded=0;" vertex="1" parent="1">
          <mxGeometry x="1065" y="252" width="71" height="30" as="geometry" />
        </mxCell>
        <mxCell id="DATJfEnJmrHQP5NNrF-W-48" value="&lt;span style=&quot;font-size: 16px;&quot;&gt;问题特征&lt;/span&gt;" style="text;html=1;align=center;verticalAlign=middle;whiteSpace=wrap;rounded=0;" vertex="1" parent="1">
          <mxGeometry x="964" y="327" width="113" height="30" as="geometry" />
        </mxCell>
        <mxCell id="DATJfEnJmrHQP5NNrF-W-49" value="&lt;span style=&quot;font-size: 16px;&quot;&gt;语言&lt;/span&gt;" style="text;html=1;align=center;verticalAlign=middle;whiteSpace=wrap;rounded=0;" vertex="1" parent="1">
          <mxGeometry x="1124" y="327" width="35" height="30" as="geometry" />
        </mxCell>
        <mxCell id="DATJfEnJmrHQP5NNrF-W-50" value="&lt;span style=&quot;font-size: 16px;&quot;&gt;Hugging Face Token&lt;/span&gt;" style="text;html=1;align=center;verticalAlign=middle;whiteSpace=wrap;rounded=0;" vertex="1" parent="1">
          <mxGeometry x="1205" y="329" width="156" height="30" as="geometry" />
        </mxCell>
        <mxCell id="DATJfEnJmrHQP5NNrF-W-51" value="&lt;span style=&quot;font-size: 16px;&quot;&gt;最小文本切分长度&lt;/span&gt;" style="text;html=1;align=center;verticalAlign=middle;whiteSpace=wrap;rounded=0;" vertex="1" parent="1">
          <mxGeometry x="957" y="405" width="146" height="30" as="geometry" />
        </mxCell>
        <mxCell id="DATJfEnJmrHQP5NNrF-W-52" value="&lt;span style=&quot;font-size: 16px;&quot;&gt;最大文本切分长度&lt;/span&gt;" style="text;html=1;align=center;verticalAlign=middle;whiteSpace=wrap;rounded=0;" vertex="1" parent="1">
          <mxGeometry x="1158" y="405" width="139" height="30" as="geometry" />
        </mxCell>
        <mxCell id="DATJfEnJmrHQP5NNrF-W-53" value="&lt;span style=&quot;font-size: 16px;&quot;&gt;大语言模型管理&lt;/span&gt;" style="text;html=1;align=center;verticalAlign=middle;whiteSpace=wrap;rounded=0;" vertex="1" parent="1">
          <mxGeometry x="1126" y="581.5" width="117" height="30" as="geometry" />
        </mxCell>
        <mxCell id="DATJfEnJmrHQP5NNrF-W-54" value="&lt;span style=&quot;font-size: 16px;&quot;&gt;Ollama&lt;/span&gt;" style="text;html=1;align=center;verticalAlign=middle;whiteSpace=wrap;rounded=0;" vertex="1" parent="1">
          <mxGeometry x="988" y="656" width="58" height="30" as="geometry" />
        </mxCell>
        <mxCell id="DATJfEnJmrHQP5NNrF-W-55" value="&lt;span style=&quot;font-size: 16px;&quot;&gt;OpenAI&lt;/span&gt;" style="text;html=1;align=center;verticalAlign=middle;whiteSpace=wrap;rounded=0;" vertex="1" parent="1">
          <mxGeometry x="1154.5" y="656" width="51" height="30" as="geometry" />
        </mxCell>
        <mxCell id="DATJfEnJmrHQP5NNrF-W-56" value="&lt;span style=&quot;font-size: 16px;&quot;&gt;DeepSeek&lt;/span&gt;" style="text;html=1;align=center;verticalAlign=middle;whiteSpace=wrap;rounded=0;" vertex="1" parent="1">
          <mxGeometry x="1285.5" y="658.13" width="78" height="30" as="geometry" />
        </mxCell>
        <mxCell id="DATJfEnJmrHQP5NNrF-W-57" value="&lt;span style=&quot;font-size: 16px;&quot;&gt;自定义模型提供商&lt;/span&gt;" style="text;html=1;align=center;verticalAlign=middle;whiteSpace=wrap;rounded=0;" vertex="1" parent="1">
          <mxGeometry x="963" y="741.56" width="138" height="30" as="geometry" />
        </mxCell>
        <mxCell id="DATJfEnJmrHQP5NNrF-W-58" value="&lt;span style=&quot;font-size: 16px;&quot;&gt;自定义模型提供商&lt;/span&gt;" style="text;html=1;align=center;verticalAlign=middle;whiteSpace=wrap;rounded=0;" vertex="1" parent="1">
          <mxGeometry x="1205.5" y="744.56" width="139" height="30" as="geometry" />
        </mxCell>
        <mxCell id="DATJfEnJmrHQP5NNrF-W-59" value="&lt;span style=&quot;font-size: 16px;&quot;&gt;系统提示词&lt;/span&gt;" style="text;html=1;align=center;verticalAlign=middle;whiteSpace=wrap;rounded=0;" vertex="1" parent="1">
          <mxGeometry x="1079" y="981.44" width="94" height="30" as="geometry" />
        </mxCell>
        <mxCell id="DATJfEnJmrHQP5NNrF-W-60" value="&lt;span style=&quot;font-size: 16px;&quot;&gt;Alpaca&lt;/span&gt;" style="text;html=1;align=center;verticalAlign=middle;whiteSpace=wrap;rounded=0;" vertex="1" parent="1">
          <mxGeometry x="991" y="1056.22" width="51" height="30" as="geometry" />
        </mxCell>
        <mxCell id="DATJfEnJmrHQP5NNrF-W-61" value="&lt;span style=&quot;font-size: 16px;&quot;&gt;ShareGPT&lt;/span&gt;" style="text;html=1;align=center;verticalAlign=middle;whiteSpace=wrap;rounded=0;" vertex="1" parent="1">
          <mxGeometry x="1084.5" y="1056.22" width="82" height="30" as="geometry" />
        </mxCell>
        <mxCell id="DATJfEnJmrHQP5NNrF-W-62" value="&lt;span style=&quot;font-size: 16px;&quot;&gt;...&lt;/span&gt;" style="text;html=1;align=center;verticalAlign=middle;whiteSpace=wrap;rounded=0;" vertex="1" parent="1">
          <mxGeometry x="1220" y="1055.75" width="51" height="30" as="geometry" />
        </mxCell>
        <mxCell id="DATJfEnJmrHQP5NNrF-W-63" value="&lt;span style=&quot;font-size: 16px;&quot;&gt;JSON&lt;/span&gt;" style="text;html=1;align=center;verticalAlign=middle;whiteSpace=wrap;rounded=0;" vertex="1" parent="1">
          <mxGeometry x="933" y="1239.44" width="146" height="30" as="geometry" />
        </mxCell>
        <mxCell id="DATJfEnJmrHQP5NNrF-W-64" value="&lt;span style=&quot;font-size: 16px;&quot;&gt;JSONL&lt;/span&gt;" style="text;html=1;align=center;verticalAlign=middle;whiteSpace=wrap;rounded=0;" vertex="1" parent="1">
          <mxGeometry x="1085" y="1239.44" width="64" height="30" as="geometry" />
        </mxCell>
        <mxCell id="DATJfEnJmrHQP5NNrF-W-65" value="&lt;span style=&quot;font-size: 16px;&quot;&gt;CSV&lt;/span&gt;" style="text;html=1;align=center;verticalAlign=middle;whiteSpace=wrap;rounded=0;" vertex="1" parent="1">
          <mxGeometry x="1225" y="1239.44" width="41" height="30" as="geometry" />
        </mxCell>
        <mxCell id="DATJfEnJmrHQP5NNrF-W-66" value="&lt;span style=&quot;font-size: 16px;&quot;&gt;Upload Hugging Face&lt;/span&gt;" style="text;html=1;align=center;verticalAlign=middle;whiteSpace=wrap;rounded=0;" vertex="1" parent="1">
          <mxGeometry x="1034" y="1309.44" width="183" height="30" as="geometry" />
        </mxCell>
      </root>
    </mxGraphModel>
  </diagram>
</mxfile>
